<svg width="48" height="31" viewBox="0 0 48 31" fill="none" xmlns="http://www.w3.org/2000/svg">
<path d="M43.3113 0C43.4737 0 43.6367 1.67376e-07 43.7991 0.00116032C43.9362 0.0018986 44.0733 0.0038492 44.2103 0.00732967C44.5083 0.015398 44.8095 0.0328536 45.105 0.0855879C45.4005 0.135689 45.687 0.229232 45.9552 0.363181C46.4936 0.635185 46.9313 1.06945 47.2054 1.60349C47.3408 1.86913 47.4352 2.15375 47.4854 2.44767C47.5388 2.74045 47.556 3.03892 47.564 3.33503C47.5677 3.47071 47.5698 3.60661 47.5703 3.74245C47.5715 3.90382 47.5715 4.06519 47.5715 4.22682V25.9877C47.5715 26.1493 47.5715 26.3104 47.5703 26.4722C47.5699 26.6082 47.5678 26.7441 47.564 26.88C47.5561 27.1753 47.5387 27.4741 47.4854 27.7668C47.4322 28.0641 47.3442 28.3407 47.2053 28.6108C46.93 29.1458 46.4924 29.58 45.9552 29.8511C45.6871 29.9855 45.4006 30.0793 45.105 30.1295C44.8095 30.1819 44.5083 30.1994 44.2103 30.2076C44.0727 30.2106 43.9359 30.2126 43.7991 30.2132C43.6367 30.2143 43.4736 30.2143 43.3113 30.2143H4.2602C4.09757 30.2143 3.93462 30.2143 3.77225 30.2132C3.63514 30.2123 3.4984 30.2105 3.36129 30.2075C3.06255 30.1994 2.76138 30.1819 2.46686 30.1296C2.16701 30.0763 1.88837 29.9888 1.61604 29.8511C1.34861 29.7164 1.10417 29.5403 0.891791 29.3292C0.679587 29.1191 0.502058 28.8766 0.365818 28.6108C0.230661 28.3451 0.136315 28.0606 0.0859571 27.7668C0.0328536 27.4741 0.0149766 27.1753 0.00685553 26.88C0.00321685 26.7439 0.00147662 26.608 0.000632867 26.4722C5.47116e-08 26.3104 0 26.1493 0 25.9877V4.22655C0 4.06492 5.47116e-08 3.90356 0.000632867 3.74277C0.00131841 3.60671 0.00337506 3.47087 0.00685553 3.33503C0.0149766 3.03892 0.0325372 2.74045 0.0859571 2.44767C0.136404 2.15381 0.230858 1.86924 0.366135 1.60355C0.641199 1.0683 1.0789 0.634051 1.61631 0.363234C1.88449 0.229196 2.17102 0.135546 2.4666 0.085324C2.76138 0.0328533 3.06255 0.0151349 3.36129 0.00706655C3.4984 0.00342788 3.63514 0.00200344 3.77225 0.000843287C3.93462 -4.63526e-07 4.09757 0 4.2602 0H43.3113ZM43.3113 1.00707H4.2602L3.77821 1.00796C3.64853 1.00849 3.51881 1.01055 3.38919 1.01371C3.16085 1.01988 2.89454 1.03217 2.64595 1.07636C2.4481 1.10904 2.25625 1.17115 2.07679 1.26062C1.90447 1.34749 1.74697 1.46104 1.61009 1.59706C1.47314 1.73227 1.35867 1.88848 1.271 2.0598C1.18073 2.23759 1.11809 2.42809 1.08522 2.62475C1.04008 2.87265 1.02774 3.13648 1.02152 3.3624C1.01814 3.49133 1.01624 3.62027 1.01572 3.74926L1.01514 4.12699V26.0881L1.01598 26.4665C1.01656 26.5953 1.01846 26.7241 1.02178 26.8529C1.02748 27.078 1.04008 27.3419 1.08496 27.588C1.11778 27.785 1.18041 27.9758 1.27069 28.1539C1.35822 28.3252 1.47251 28.4814 1.60924 28.6167C1.74582 28.7528 1.90315 28.8664 2.07536 28.9532C2.2553 29.0432 2.44773 29.1057 2.64621 29.1385C2.89733 29.183 3.17493 29.1955 3.38887 29.2011C3.51812 29.2041 3.64748 29.2058 3.77678 29.2064C3.93783 29.2075 4.09583 29.2075 4.25398 29.2075H43.3113C43.4712 29.2075 43.6315 29.2075 43.7909 29.2064C43.9253 29.2058 44.056 29.2037 44.1874 29.201C44.3962 29.1952 44.6739 29.183 44.9272 29.1382C45.1406 29.1 45.3211 29.0415 45.4937 28.9543C45.8407 28.7798 46.1233 28.4995 46.3007 28.1539C46.3908 27.9768 46.4533 27.7869 46.4859 27.5908C46.5308 27.3445 46.5431 27.0795 46.5495 26.8526C46.5529 26.7243 46.5546 26.5959 46.5552 26.4676C46.5563 26.3057 46.5563 26.1471 46.5563 25.988V4.22682C46.5563 4.06782 46.5563 3.90915 46.5549 3.75036C46.5546 3.61932 46.5529 3.49091 46.5493 3.36271C46.5431 3.13537 46.5308 2.87054 46.4865 2.62691C46.4478 2.41107 46.3891 2.23256 46.3012 2.06155C46.1243 1.716 45.842 1.4357 45.4953 1.2612C45.3218 1.17334 45.1406 1.1148 44.9252 1.07636C44.6768 1.03212 44.4106 1.01994 44.1828 1.01371C44.0525 1.01048 43.9221 1.00854 43.7918 1.00791L43.3113 1.00707ZM12.5045 10.1993C12.0868 10.6858 11.4246 11.0713 10.7618 11.0144C10.6757 10.3565 11.0071 9.65646 11.3815 9.22767C11.7988 8.72659 12.5191 8.36942 13.1094 8.34031C13.1815 9.02686 12.9079 9.69896 12.5045 10.1993ZM13.102 11.1429H13.1016C13.4753 11.1714 14.5525 11.2855 15.242 12.2972C15.1845 12.3401 13.9636 13.0387 13.9779 14.5073C13.9923 16.2609 15.5288 16.8456 15.5432 16.8599C15.5288 16.9027 15.2997 17.6869 14.7393 18.4994C14.251 19.2123 13.748 19.9108 12.9439 19.9251C12.1682 19.9393 11.9095 19.4689 11.0194 19.4689C10.129 19.4689 9.84187 19.9108 9.10907 19.9393C8.33361 19.9676 7.74505 19.1835 7.25667 18.4706C6.25071 17.0308 5.48975 14.4075 6.52388 12.6395C7.0268 11.7556 7.94586 11.1996 8.93658 11.1853C9.69796 11.1714 10.4019 11.6846 10.8616 11.6846C11.3212 11.6846 12.1391 11.0858 13.102 11.1429ZM22.6971 9.15579C24.7889 9.15579 26.2457 10.5863 26.2457 12.6689C26.2457 14.759 24.759 16.197 22.6449 16.197H20.329V19.8513H18.6557V9.15579H22.6972H22.6971ZM20.329 14.8035H22.2489C23.706 14.8035 24.5349 14.0253 24.5349 12.6764C24.5349 11.3277 23.7057 10.5566 22.2563 10.5566H20.329V14.8035ZM26.6609 17.6349C26.6609 16.2638 27.7142 15.478 29.6564 15.3595L31.7407 15.2334V14.6404C31.7407 13.7735 31.1656 13.2991 30.1422 13.2991C29.2977 13.2991 28.685 13.7289 28.5586 14.3883H27.0491C27.0943 13.0026 28.4088 11.9946 30.1871 11.9946C32.0995 11.9946 33.347 12.9877 33.347 14.5295V19.851H31.8007V18.5688H31.7634C31.3225 19.4061 30.3512 19.9323 29.2977 19.9323C27.744 19.9323 26.6609 19.0135 26.6609 17.6349ZM31.7408 16.9458V16.3452L29.8806 16.4639C28.8344 16.5305 28.2896 16.9158 28.2896 17.5902C28.2896 18.2425 28.8571 18.6651 29.7461 18.6651C30.8814 18.6651 31.7407 17.946 31.7407 16.9458H31.7408ZM34.7687 22.7117V21.4297C34.8735 21.4443 35.1271 21.4591 35.2618 21.4591C36.0012 21.4591 36.4196 21.1483 36.6737 20.3473L36.8231 19.8732L33.9916 12.091H35.7397L37.712 18.4057H37.7495L39.7216 12.091H41.425L38.489 20.2659C37.8165 22.1413 37.0471 22.7566 35.4186 22.7566C35.2915 22.7566 34.8805 22.7418 34.7687 22.7118V22.7117Z" fill="black"/>
</svg>
