<svg width="54" height="28" viewBox="0 0 54 28" fill="none" xmlns="http://www.w3.org/2000/svg">
<g clip-path="url(#clip0_35_11183)">
<mask id="mask0_35_11183" style="mask-type:luminance" maskUnits="userSpaceOnUse" x="0" y="0" width="54" height="28">
<path d="M49.5147 28H4.48525C2.00811 28 0 26.0209 0 23.5796V4.42035C0 1.97896 2.00811 1.90735e-06 4.48525 1.90735e-06H49.5147C51.9918 1.90735e-06 54 1.97896 54 4.42035V23.5796C54 26.0209 51.9918 28 49.5147 28Z" fill="white"/>
</mask>
<g mask="url(#mask0_35_11183)">
<path d="M49.5147 28H4.48525C2.00811 28 0 26.0209 0 23.5796V4.42035C0 1.97896 2.00811 1.90735e-06 4.48525 1.90735e-06H49.5147C51.9918 1.90735e-06 54 1.97896 54 4.42035V23.5796C54 26.0209 51.9918 28 49.5147 28Z" fill="url(#paint0_linear_35_11183)"/>
</g>
<path d="M25.8971 24.4058H22.2354V4.18841H25.8971V24.4058Z" fill="white"/>
<path d="M32.6911 24.4058H29.0293V11.0145H32.6911V24.4058Z" fill="white"/>
<path d="M49.1031 24.4058L43.6006 17.3189L48.662 11.0145H44.3384L39.4855 17.1307V4.18841H35.8237V24.4058H39.4855V17.5305L44.3384 24.4058H49.1031Z" fill="white"/>
<path d="M12.9046 20.9492C11.0894 20.9492 9.61782 19.499 9.61782 17.71C9.61782 15.9213 11.0894 14.471 12.9046 14.471C14.7197 14.471 16.1913 15.9213 16.1913 17.71C16.1913 19.499 14.7197 20.9492 12.9046 20.9492ZM12.9046 10.8623C11.7155 10.8623 10.5965 11.1572 9.61782 11.676V4.18833H5.95605V17.71C5.95605 21.492 9.06704 24.5579 12.9046 24.5579C16.7421 24.5579 19.8531 21.492 19.8531 17.71C19.8531 13.9282 16.7421 10.8623 12.9046 10.8623Z" fill="white"/>
<mask id="mask1_35_11183" style="mask-type:luminance" maskUnits="userSpaceOnUse" x="13" y="3" width="7" height="7">
<path d="M19.7428 6.40566C19.7428 8.1827 18.2811 9.62305 16.4781 9.62305C14.675 9.62305 13.2134 8.1827 13.2134 6.40566C13.2134 4.62879 14.675 3.18826 16.4781 3.18826C18.2811 3.18826 19.7428 4.62879 19.7428 6.40566Z" fill="white"/>
</mask>
<g mask="url(#mask1_35_11183)">
<path d="M19.7428 6.40566C19.7428 8.1827 18.2811 9.62305 16.4781 9.62305C14.675 9.62305 13.2134 8.1827 13.2134 6.40566C13.2134 4.62879 14.675 3.18826 16.4781 3.18826C18.2811 3.18826 19.7428 4.62879 19.7428 6.40566Z" fill="url(#paint1_radial_35_11183)"/>
</g>
</g>
<defs>
<linearGradient id="paint0_linear_35_11183" x1="27" y1="28" x2="27" y2="1.90735e-06" gradientUnits="userSpaceOnUse">
<stop stop-color="#3D3E3F"/>
<stop offset="1" stop-color="#050606"/>
</linearGradient>
<radialGradient id="paint1_radial_35_11183" cx="0" cy="0" r="1" gradientTransform="matrix(8.19932 6.78033 -6.88004 8.08049 13.8237 3.01435)" gradientUnits="userSpaceOnUse">
<stop stop-color="#EE252C"/>
<stop offset="0.494975" stop-color="#EF304C"/>
<stop offset="1" stop-color="#9C41A6"/>
</radialGradient>
<clipPath id="clip0_35_11183">
<rect width="54" height="28" fill="white"/>
</clipPath>
</defs>
</svg>
