<svg width="120" height="36" viewBox="0 0 120 36" fill="none" xmlns="http://www.w3.org/2000/svg">
<path d="M21.2271 8.56592H32.7781V27.4322H21.2271V8.56592Z" fill="#FF5F00"/>
<path d="M22.4165 18.0006C22.4151 16.184 22.8269 14.3908 23.6208 12.7568C24.4147 11.1228 25.5699 9.69079 26.999 8.56915C25.229 7.17816 23.1035 6.31318 20.8652 6.07308C18.6269 5.83298 16.3662 6.22744 14.3415 7.21138C12.3168 8.19531 10.6098 9.72903 9.4155 11.6372C8.22122 13.5454 7.58789 15.7512 7.58789 18.0023C7.58789 20.2534 8.22122 22.4591 9.4155 24.3673C10.6098 26.2755 12.3168 27.8092 14.3415 28.7932C16.3662 29.7771 18.6269 30.1716 20.8652 29.9315C23.1035 29.6914 25.229 28.8264 26.999 27.4354C25.5695 26.3134 24.414 24.8809 23.6201 23.2463C22.8262 21.6116 22.4146 19.8178 22.4165 18.0006V18.0006Z" fill="#EB001B"/>
<path d="M45.2656 25.4358V25.0493H45.4322V24.9692H45.0356V25.0493H45.1923V25.4359L45.2656 25.4358ZM46.0354 25.4358V24.9693H45.9154L45.7755 25.3025L45.6355 24.9692H45.5155V25.4358H45.6022V25.0826L45.7322 25.3859H45.8221L45.9521 25.0826V25.4358H46.0354Z" fill="#F79E1B"/>
<path d="M46.4119 18.0008C46.4119 20.252 45.7784 22.4579 44.5839 24.3662C43.3894 26.2745 41.6821 27.8081 39.6571 28.7919C37.6322 29.7757 35.3713 30.1699 33.1328 29.9295C30.8944 29.689 28.7688 28.8236 26.999 27.4322C28.4275 26.3096 29.5824 24.8772 30.3765 23.2431C31.1706 21.609 31.5832 19.8159 31.5832 17.9991C31.5832 16.1822 31.1706 14.3891 30.3765 12.755C29.5824 11.121 28.4275 9.68856 26.999 8.56593C28.7688 7.17449 30.8944 6.30909 33.1329 6.06863C35.3713 5.82818 37.6322 6.22239 39.6572 7.20619C41.6821 8.18999 43.3894 9.72369 44.5839 11.632C45.7784 13.5403 46.4119 15.7461 46.4119 17.9974V18.0008Z" fill="#F79E1B"/>
<g clip-path="url(#clip0_46_24420)">
<path d="M89.3998 26.2548H85.0254L87.7614 9.79834H92.1356L89.3998 26.2548Z" fill="#00579F"/>
<path d="M105.258 10.2006C104.395 9.86764 103.026 9.5 101.334 9.5C97.0144 9.5 93.9724 11.7408 93.9537 14.9444C93.9178 17.308 96.1317 18.6208 97.7875 19.4089C99.4799 20.2142 100.055 20.7399 100.055 21.4577C100.038 22.5602 98.6876 23.0684 97.4282 23.0684C95.6817 23.0684 94.746 22.8064 93.3239 22.193L92.7479 21.9301L92.1357 25.6242C93.1617 26.0788 95.0519 26.4823 97.0144 26.5C101.604 26.5 104.592 24.2939 104.628 20.88C104.645 19.0066 103.476 17.5712 100.956 16.3982C99.4261 15.6452 98.4891 15.1375 98.4891 14.3671C98.507 13.6667 99.2816 12.9493 101.009 12.9493C102.431 12.9142 103.476 13.2467 104.267 13.5794L104.663 13.7542L105.258 10.2006Z" fill="#00579F"/>
<path d="M111.072 20.4249C111.432 19.4795 112.818 15.8205 112.818 15.8205C112.8 15.8556 113.178 14.8576 113.394 14.245L113.699 15.6629C113.699 15.6629 114.528 19.6021 114.708 20.4249C114.024 20.4249 111.936 20.4249 111.072 20.4249ZM116.471 9.79834H113.088C112.044 9.79834 111.251 10.0957 110.801 11.1637L104.304 26.2546H108.894C108.894 26.2546 109.649 24.2234 109.812 23.786C110.315 23.786 114.78 23.786 115.428 23.786C115.554 24.3638 115.95 26.2546 115.95 26.2546H120L116.471 9.79834Z" fill="#00579F"/>
<path d="M81.3717 9.79834L77.0878 21.0201L76.6196 18.7442C75.8276 16.1181 73.3437 13.2649 70.5718 11.8462L74.4957 26.2373H79.1215L85.9973 9.79834H81.3717Z" fill="#00579F"/>
<path d="M73.1099 9.79834H66.072L66 10.1308C71.49 11.4965 75.126 14.7883 76.6198 18.7449L75.0899 11.1817C74.838 10.1306 74.0639 9.83301 73.1099 9.79834Z" fill="#FAA61A"/>
</g>
<defs>
<clipPath id="clip0_46_24420">
<rect width="54" height="17" fill="white" transform="translate(66 9.5)"/>
</clipPath>
</defs>
</svg>
