<svg width="54" height="29" viewBox="0 0 54 29" fill="none" xmlns="http://www.w3.org/2000/svg">
<path d="M39.484 1.15877C41.2507 1.15877 42.9674 1.50926 44.584 2.19594C46.1504 2.86116 47.5524 3.81249 48.7684 5.02133C49.9772 6.23017 50.9286 7.63929 51.5938 9.20577C52.2805 10.8223 52.631 12.539 52.631 14.3058C52.631 16.0725 52.2805 17.7892 51.5938 19.4058C50.9286 20.9723 49.9772 22.3742 48.7684 23.5902C47.5596 24.7991 46.1504 25.7504 44.584 26.4156C42.9674 27.1023 41.2507 27.4528 39.484 27.4528H14.3058C12.539 27.4528 10.8223 27.1023 9.20577 26.4156C7.63929 25.7504 6.23732 24.7991 5.02133 23.5902C3.81249 22.3814 2.86116 20.9723 2.19594 19.4058C1.50926 17.7892 1.15877 16.0725 1.15877 14.3058C1.15877 12.539 1.50926 10.8223 2.19594 9.20577C2.86116 7.63929 3.81249 6.23732 5.02133 5.02133C6.23017 3.81249 7.63929 2.86116 9.20577 2.19594C10.8223 1.50926 12.539 1.15877 14.3058 1.15877H39.484ZM39.484 0H14.3058C6.4376 0 0 6.4376 0 14.3058C0 22.174 6.4376 28.6116 14.3058 28.6116H39.484C47.3521 28.6116 53.7897 22.174 53.7897 14.3058C53.7897 6.4376 47.3521 0 39.484 0Z" fill="#3C4043"/>
</svg>
