<svg width="54" height="19" viewBox="0 0 54 19" fill="none" xmlns="http://www.w3.org/2000/svg">
<g clip-path="url(#clip0_35_11205)">
<path fill-rule="evenodd" clip-rule="evenodd" d="M11.5204 10.8826L15.9192 10.877L15.7589 11.8835L12.0801 15.4149L15.1682 15.4092L14.9882 16.495L10.4404 16.4978L10.6317 15.3753L14.1586 11.9796H11.3432L11.5204 10.8826Z" fill="#D13239"/>
<path fill-rule="evenodd" clip-rule="evenodd" d="M6.70805 9.16074C6.61242 9.05895 6.47461 8.97978 6.32273 8.91758C6.16242 8.85538 5.98523 8.81014 5.81086 8.77904C5.59148 8.73946 5.37773 8.72249 5.22586 8.71684C5.08523 8.71118 4.99523 8.71118 4.99523 8.71118H3.07148H1.63992L0.357422 16.4978H1.55555L2.02805 13.6139L4.35117 13.6252C4.35117 13.6252 5.2568 13.6619 5.89805 13.3198C6.5393 12.9777 6.71086 12.2002 6.71086 12.2002C6.71086 12.2002 6.78117 11.9118 6.84023 11.5612C6.90492 11.1738 6.96961 10.7101 7.00336 10.4642C7.01742 10.3567 7.02586 10.2889 7.02586 10.2889C7.02586 10.2889 7.04273 10.2097 7.04273 10.0853C7.04555 9.91282 7.02023 9.6527 6.88523 9.40389C6.83742 9.31624 6.78117 9.23707 6.70805 9.16074ZM5.78555 10.5348C5.78555 10.549 5.67867 11.1738 5.53805 11.9146C5.48461 12.1973 5.26805 12.35 5.02055 12.4037C4.60992 12.4914 4.16836 12.4744 4.16836 12.4744L2.22773 12.4688L2.65523 9.88172L4.41305 9.88737C4.41305 9.88737 4.53117 9.88454 4.69711 9.88737C4.88555 9.8902 5.13586 9.89868 5.34117 9.92696C5.51836 9.94957 5.65898 9.98633 5.70398 10.0429C5.76305 10.1164 5.78555 10.2125 5.79398 10.2973C5.80523 10.4217 5.78555 10.5264 5.78555 10.5348Z" fill="#D13239"/>
<path fill-rule="evenodd" clip-rule="evenodd" d="M21.8841 8.71118H23.0372L21.7463 16.4978L20.5903 16.495L21.8841 8.71118Z" fill="#D13239"/>
<path fill-rule="evenodd" clip-rule="evenodd" d="M28.0381 10.8827L29.1434 10.8799L29.5343 14.8326L31.2359 10.8743L32.6 10.8771L33.0021 14.8467L34.7009 10.8799H35.8484L33.4128 16.4923H32.0515L31.6578 12.5622L29.9393 16.4923L28.6006 16.4979L28.0381 10.8827Z" fill="#D13239"/>
<path d="M19.7554 10.9278C19.432 10.8232 18.8723 10.8006 18.397 10.8062C17.9385 10.8119 17.7276 10.8345 17.556 10.8713C17.556 10.8713 16.7404 10.99 16.2764 11.5668C15.8123 12.1436 15.6745 13.4046 15.6745 13.4046C15.6745 13.4046 15.3989 14.7985 15.4804 15.265C15.562 15.7287 15.7054 16.1613 16.2285 16.362C16.7517 16.5656 17.196 16.5543 17.196 16.5543C17.196 16.5543 18.1298 16.6278 18.8329 16.461C19.536 16.2942 19.9073 15.7965 19.9073 15.7965C19.9073 15.7965 20.0732 15.5817 20.1914 15.3272C20.3095 15.0727 20.346 14.8946 20.3517 14.872L20.4248 14.5695L19.2295 14.5723C19.2295 14.5723 19.1648 15.3668 18.5179 15.4403C17.8739 15.5138 17.5279 15.4855 17.4014 15.4799C17.2776 15.4742 16.5857 15.5053 16.642 14.9229C16.642 14.9144 16.642 14.9031 16.6448 14.8861C16.6757 14.2245 16.7489 14.0521 16.7489 14.0521L20.5035 14.0407L20.6639 13.1077C20.8495 12.0503 20.7173 11.2445 19.7554 10.9278ZM19.5051 12.9748L16.9317 12.972L17.0329 12.562C17.0329 12.562 17.1229 12.2397 17.3001 12.104C17.4801 11.9683 17.7079 11.9428 17.9217 11.923C18.1354 11.9032 18.7064 11.8608 19.1704 11.957C19.3251 11.9881 19.4714 12.0757 19.5107 12.2058C19.6007 12.5111 19.5051 12.9748 19.5051 12.9748Z" fill="#D13239"/>
<path d="M16.6506 14.8975C16.6506 14.906 16.6478 14.9145 16.6478 14.923C16.6449 14.9682 16.6506 14.8947 16.6506 14.8975Z" fill="#D13239"/>
<path d="M23.7323 14.9005C23.7323 14.909 23.7295 14.9174 23.7295 14.9259C23.7295 14.9712 23.7323 14.8976 23.7323 14.9005Z" fill="#D13239"/>
<path d="M26.8399 10.9307C26.5165 10.8261 25.9568 10.8035 25.4815 10.8092C25.023 10.8148 24.8121 10.8374 24.6405 10.8742C24.6405 10.8742 23.8249 10.9929 23.3608 11.5697C22.8968 12.1465 22.759 13.4075 22.759 13.4075C22.759 13.4075 22.4833 14.8014 22.5649 15.2679C22.6465 15.7316 22.7899 16.1642 23.313 16.365C23.8361 16.5685 24.2805 16.5572 24.2805 16.5572C24.2805 16.5572 25.2143 16.6307 25.9174 16.4639C26.6205 16.2971 26.9918 15.7995 26.9918 15.7995C26.9918 15.7995 27.1577 15.5846 27.2758 15.3301C27.394 15.0757 27.4305 14.8975 27.4361 14.8749L27.5093 14.5724L26.314 14.5752C26.314 14.5752 26.2493 15.3697 25.6024 15.4432C24.9583 15.5167 24.6124 15.4885 24.4858 15.4856C24.3621 15.48 23.6702 15.5083 23.7265 14.9286C23.7265 14.9202 23.7265 14.9089 23.7293 14.8919C23.7602 14.2303 23.8333 14.0578 23.8333 14.0578L27.588 14.0465L27.7483 13.1135C27.934 12.0532 27.8018 11.2446 26.8399 10.9307ZM26.5783 12.9749L24.0049 12.9721L24.1061 12.5621C24.1061 12.5621 24.1961 12.2398 24.3733 12.1041C24.5505 11.9684 24.7811 11.9429 24.9949 11.9231C25.2086 11.9033 25.7796 11.8609 26.2436 11.9571C26.3983 11.9882 26.5446 12.0758 26.584 12.2059C26.674 12.5084 26.5783 12.9749 26.5783 12.9749Z" fill="#D13239"/>
<path fill-rule="evenodd" clip-rule="evenodd" d="M37.1761 10.8827L37.9158 14.9881L40.0054 10.8799L41.1811 10.8912L38.1689 16.758C38.1689 16.758 37.6233 17.8211 37.2858 18.0897C36.9483 18.3583 36.7401 18.4799 36.4645 18.5082C36.1889 18.5364 36.0764 18.5562 35.812 18.5082L35.5308 18.4573L35.7051 17.4083C35.7051 17.4083 36.172 17.496 36.4476 17.3857C36.7261 17.2754 36.9483 16.8004 36.9483 16.8004L37.0889 16.5629L36.0004 10.8799L37.1761 10.8827Z" fill="#D13239"/>
<path fill-rule="evenodd" clip-rule="evenodd" d="M41.6081 11.4396L42.8203 11.4425L42.8935 10.9703C42.8935 10.9703 43.0228 10.1164 43.3125 9.95242C43.4053 9.8987 43.5544 9.85064 43.726 9.81954C44.0438 9.76299 44.446 9.75734 44.775 9.76864C45.2785 9.78561 45.4697 9.79126 45.9816 9.85064C46.4935 9.91001 46.3641 10.4076 46.3641 10.4076L46.2628 11.1512C46.2628 11.1512 46.2178 11.4849 46.0997 11.6913C45.9956 11.875 45.7088 11.9994 45.5428 12.0532C45.1435 12.1832 43.7766 12.5338 43.7766 12.5338L42.7022 12.8448C42.7022 12.8448 42.0413 13.0371 41.6728 13.4471C41.3016 13.8599 41.1553 14.3264 41.1047 14.5695C41.0541 14.8127 40.77 16.495 40.77 16.495L46.5694 16.4978L46.7635 15.3329L42.1763 15.3386L42.2578 14.8636C42.2578 14.8636 42.3113 14.3744 42.5081 14.2133C42.57 14.1624 42.601 14.0945 42.9666 13.9645C43.186 13.8853 43.9341 13.6846 43.9341 13.6846L45.6638 13.2096C45.6638 13.2096 46.6088 12.9664 46.98 12.4462C47.3513 11.9288 47.4947 10.9364 47.4947 10.9364C47.4947 10.9364 47.596 9.97222 47.5172 9.66969C47.4413 9.36716 47.1572 9.00525 46.8113 8.84975C46.4653 8.69424 46.1053 8.60376 45.0619 8.6179C44.0185 8.63204 43.501 8.6801 42.9722 8.87802C42.4435 9.07311 42.1369 9.42936 41.9428 9.93263C41.7319 10.4105 41.6081 11.4396 41.6081 11.4396Z" fill="#B3B2B1"/>
<path fill-rule="evenodd" clip-rule="evenodd" d="M52.5267 13.6055L53.3395 8.7085H51.8995L47.4164 13.549L47.2139 14.7761H51.1345L50.8476 16.4951L52.0514 16.4979L52.3354 14.7761L53.4464 14.7789L53.6461 13.6055H52.5267ZM51.3286 13.6083L48.7945 13.6055L51.8798 10.3003L51.3286 13.6083Z" fill="#B3B2B1"/>
<path fill-rule="evenodd" clip-rule="evenodd" d="M9.25049 9.35294H12.9433C12.9433 9.35294 13.7702 8.68002 14.358 8.24743C14.9458 7.81484 16.0146 7.13344 16.0146 7.13344L13.9277 6.15234C13.9277 6.15234 12.1642 7.24937 11.4161 7.76678C10.6905 8.24461 9.25049 9.35294 9.25049 9.35294Z" fill="#B3B2B1"/>
<path fill-rule="evenodd" clip-rule="evenodd" d="M17.1874 6.44072L15.4746 5.28149C15.4746 5.28149 17.0243 4.39652 19.0859 3.57093C21.1446 2.74533 22.2443 2.40039 22.2443 2.40039L22.593 4.0431C22.593 4.0431 20.6102 4.71036 19.474 5.25039C18.2984 5.75366 17.1874 6.44072 17.1874 6.44072Z" fill="#B3B2B1"/>
<path fill-rule="evenodd" clip-rule="evenodd" d="M23.8587 3.68409L23.5605 2.0018C23.5605 2.0018 25.6755 1.43632 27.6105 1.07441C29.5484 0.712509 32.1162 0.540039 32.1162 0.540039L31.2668 3.1384C31.2668 3.1384 29.0084 2.82739 26.8877 3.11861C25.2368 3.31653 23.8587 3.68409 23.8587 3.68409Z" fill="#B3B2B1"/>
<path fill-rule="evenodd" clip-rule="evenodd" d="M32.6113 3.35898L34.0401 0.472227C34.0401 0.472227 37.1704 0.410025 39.8704 0.831304C42.5704 1.24976 45.0398 1.8944 44.9863 1.92267L38.1407 5.52193C38.1407 5.52193 36.5404 4.50407 34.5548 3.87922C33.4298 3.54559 32.6113 3.35898 32.6113 3.35898Z" fill="#B3B2B1"/>
<path fill-rule="evenodd" clip-rule="evenodd" d="M39.3667 6.30522L40.8714 7.45314H53.238C53.238 7.45314 53.2126 7.05165 52.8836 6.48052C52.6783 6.12427 52.3042 5.7454 51.9133 5.3524C51.7698 5.21103 51.2017 4.7643 50.7742 4.48439C49.683 3.77189 49.0726 3.49764 47.9392 2.98022L39.3667 6.30522Z" fill="#B3B2B1"/>
<path d="M10.0521 10.877C9.58803 10.877 9.14928 11.0607 8.77521 11.2671L8.8399 10.877H7.61084L6.62646 16.4667H7.85834L8.40396 13.3707C8.51646 12.743 8.98334 11.9655 9.89459 11.9655L10.5302 11.9627L10.7215 10.877H10.0521Z" fill="#D13239"/>
</g>
<defs>
<clipPath id="clip0_35_11205">
<rect width="54" height="19" fill="white"/>
</clipPath>
</defs>
</svg>
