<svg width="54" height="15" viewBox="0 0 54 15" fill="none" xmlns="http://www.w3.org/2000/svg">
<g clip-path="url(#clip0_35_11229)">
<path d="M7.40137 11.7071L7.40137 8.52075H4.23421V11.7071H7.40137Z" fill="#A70584"/>
<path d="M7.38818 7.40967L7.38818 4.19653L4.22103 4.19653V7.40967H7.38818Z" fill="#36B588"/>
<path d="M3.16553 11.6939L3.16553 8.48071H-0.00162816L-0.00162816 11.6939H3.16553Z" fill="#FAD05B"/>
<path d="M16.8439 3.995C16.8439 6.21207 15.0862 7.99 12.8216 7.99H11.0955V11.653H8.4668V0H12.8164C15.0862 0 16.8439 1.78329 16.8439 3.995ZM14.2205 3.995C14.2205 3.14352 13.6293 2.49554 12.8269 2.49554H11.1008V5.49447H12.8269C13.6293 5.49447 14.2205 4.84648 14.2205 3.995Z" fill="black"/>
<path d="M26.0076 3.10598V11.6529H23.4791V10.8496C22.9249 11.4976 22.0962 11.8939 20.9665 11.8939C18.7601 11.8939 16.939 9.92854 16.939 7.37945C16.939 4.83036 18.7601 2.86499 20.9665 2.86499C22.0962 2.86499 22.9196 3.25592 23.4791 3.90926V3.10598H26.0076ZM23.4791 7.37945C23.4791 6.09955 22.6346 5.29091 21.4733 5.29091C20.312 5.29091 19.4674 6.09419 19.4674 7.37945C19.4674 8.65935 20.312 9.46799 21.4733 9.46799C22.6346 9.46263 23.4791 8.65935 23.4791 7.37945Z" fill="black"/>
<path d="M35.6092 3.10596L32.7483 11.3423C31.8087 14.0413 30.3201 15.1124 27.9764 14.9946V12.6168C29.1482 12.6168 29.7025 12.242 30.0667 11.2084L26.7412 3.10596H29.5019L31.36 8.30053L32.933 3.10596H35.6092Z" fill="black"/>
<path d="M44.9684 3.995C44.9684 6.21207 43.2107 7.99 40.9461 7.99H39.22V11.653H36.5913V0H40.9409C43.2107 0 44.9684 1.78329 44.9684 3.995ZM42.345 3.995C42.345 3.14352 41.7538 2.49554 40.9514 2.49554H39.2253V5.49447H40.9514C41.7538 5.49447 42.345 4.84648 42.345 3.995Z" fill="black"/>
<path d="M45.2954 7.49723C45.2954 5.01776 47.2327 3.10059 49.645 3.10059C52.0573 3.10059 53.9945 5.01776 53.9945 7.49723C53.9945 9.9767 52.0573 11.8939 49.645 11.8939C47.2327 11.8939 45.2954 9.9767 45.2954 7.49723ZM51.5347 7.49723C51.5347 6.31372 50.7112 5.53186 49.645 5.53186C48.5787 5.53186 47.7552 6.31372 47.7552 7.49723C47.7552 8.68074 48.5787 9.4626 49.645 9.4626C50.7165 9.4626 51.5347 8.68074 51.5347 7.49723Z" fill="black"/>
</g>
<defs>
<clipPath id="clip0_35_11229">
<rect width="54" height="15" fill="white"/>
</clipPath>
</defs>
</svg>
